<?xml version="1.0" encoding="utf-8"?>
<!-- Generator: Adobe Illustrator 23.1.0, SVG Export Plug-In . SVG Version: 6.00 Build 0)  -->
<svg version="1.1" id="Layer_1" xmlns="http://www.w3.org/2000/svg" xmlns:xlink="http://www.w3.org/1999/xlink" x="0px" y="0px"
	 viewBox="0 0 1047.6 300" style="enable-background:new 0 0 1047.6 300;" xml:space="preserve">
<style type="text/css">
	.st0{fill:#F44502;}
	.st1{fill-rule:evenodd;clip-rule:evenodd;fill:#F44502;}
</style>
<path class="st0" d="M361.4,191.4c2.3,0.1,3.8,0.6,4.6,1.3c0.8,0.7,1.2,2.1,1.4,4.2c0.3,2.3,0,5.8-0.8,10.3
	c-0.8,4.5-1.9,8.6-3.3,12.1c-0.8,1.6-0.4,2.5,1.1,2.6c1.2,0,4.7-0.2,10.3-0.7c7.9-0.9,13.5-1.5,16.7-2c3.2-0.4,13.7-1.5,31.6-3.3
	c13.3-1.5,21.3-2.2,24.2-2.2c2.8,0,4.8,0.7,6.1,2.2c2.1,3.1,2.6,5.5,1.4,7.4c-1.2,1.8-5,4.1-11.2,6.7c-9.6,4.2-21.3,7.2-35.2,9
	c-13.8,1.8-32.6,2.6-56.5,2.6c-17.9,0-29.4-0.2-34.7-0.5c-5.3-0.4-9.4-1.2-12.3-2.5c-8.4-4.1-10.3-8.6-5.7-13.4
	c1.4-1.5,3.4-2.4,6.1-2.7c2.7-0.4,8.7-0.5,18.2-0.5c0.6,0,1.5,0,2.7,0c4.1,0,7,0,8.7,0c1.7,0,3.5-0.2,5.6-0.5
	c2.1-0.4,3.4-0.7,3.9-1.1c0.5-0.4,1.2-1.2,1.9-2.6c0.8-1.4,1.3-2.7,1.5-3.8c0.2-1.2,0.5-3.1,0.8-5.9c0.2-1,0.3-1.8,0.5-2.2
	c0.9-5.9,2.3-9.7,4.1-11.6C354.9,191.9,357.7,191,361.4,191.4z M391.7,113.4c1.9,2,2.9,7.4,2.9,16.3c0,5.7-0.3,9.9-0.8,12.5
	c-0.5,2.6-1.8,5.6-3.8,9c-3.4,5.9-5.9,9.8-7.7,12c-1.8,2.1-4.5,4.6-8.4,7.4c-4.1,2.9-8.8,4.6-14.1,5c-5.3,0.4-9.3-0.5-12-2.9
	c-2.7-2.2-4-6.4-3.7-12.7c0.3-6.3,2-11.4,5-15.4c2.1-3.1,6.5-7.5,13.1-13.4c6.6-5.9,12.8-11,18.8-15.4
	C386.2,112.3,389.8,111.5,391.7,113.4z M376.9,140.5c-1.5,0.4-4.2,2.7-8,6.8c-2.3,2.5-4.2,4.8-5.6,7c-1.5,2.2-2,3.6-1.7,4.2
	c0.8,0.9,2.1,1,3.9,0.3c1.8-0.7,3.8-2,6-4.1c2.1-2,3.7-4.1,4.6-6.1C378.8,142.6,379.1,139.9,376.9,140.5z"/>
<path class="st0" d="M578.5,137.1c1.5,4.5-1,8.9-7.7,13.1c-6.6,4.2-17.8,8.4-33.6,12.8c-12.5,3.4-21.1,5.9-25.9,7.5
	c-3.1,1.2-11.7,3.6-25.9,7.2c-13,3.1-25.3,4.5-37.1,4.4c-8.9,0-15.2-0.5-19-1.5c-3.8-1-5.7-2.6-5.7-4.8c0-1.9,1.7-3.4,5.2-4.5
	c3.4-1.1,10.3-2.4,20.7-4.1c4.6-0.6,8.4-1.1,11.6-1.6c3.1-0.5,6.4-1.1,9.7-1.8c3.4-0.7,7.1-1.5,11.2-2.5c4.1-1,8.6-2.1,13.3-3.3
	c4.7-1.2,11-2.8,18.8-4.8c19.1-5,32.1-8.5,38.9-10.6c6.9-2.1,11.4-3.9,13.7-5.4C573.1,132.7,577,132.7,578.5,137.1z M519,181.8
	c3.7,0,6.4,1.5,8.1,4.6c1.8,3.1,2.3,7,1.6,11.8c-0.7,4.8-2.6,9.5-5.6,14c-1.4,2.2-2.6,4.9-3.7,8c-1.1,3.1-1.7,5.7-1.8,7.7
	c-0.2,2,0.1,3.1,0.9,3.4c0.5,0,3-0.8,7.7-2.5c4.7-1.7,9.9-3.7,15.8-5.9c5.9-2.3,10.7-4.2,14.5-5.8c2.7-1.2,4.6-1.8,5.6-1.9
	c1-0.1,2,0.5,3.1,1.9c1.2,1.5,1,3.2-0.6,5.3c-1.6,2-4.5,4.2-8.7,6.5c-4.2,2.3-9.3,4.5-15.2,6.7c-6.3,2.3-10.8,4.3-13.5,5.8
	c-2.7,1.5-5,3.5-6.9,5.8c-3.7,4.8-6.6,8.6-8.9,11.3c-2.3,2.7-4.4,4.7-6.3,6.1c-1.9,1.4-4.1,2.5-6.5,3.4c-7.3,2.9-14.2,3.5-20.6,1.9
	c-6.4-1.7-9.6-4.9-9.6-9.5c0-3.4,1.8-6.6,5.4-9.8c3.6-3.1,9.4-6.7,17.5-10.6l13.1-5.9v-9c0-5.7,1.1-11.2,3.4-16.5
	c0.9-2.3,1.6-4.2,2.2-5.7c0.5-1.5,0.6-2.2,0.3-2.2c-1.4,0-4.7,1.5-10,4.5c-5.3,3-9.1,5.6-11.6,7.8c-3.4,2.9-6.2,4.4-8.5,4.3
	c-2.3-0.1-4.4-1.8-6.4-5.2c-1.4-2.5-1.9-4.2-1.5-5c0.4-0.9,2.3-2.8,5.8-5.9c4.6-3.8,11.8-8,21.5-12.7
	C509.5,184,515.9,181.8,519,181.8z M493.3,83.3c0.9-0.3,2.1,0.2,3.4,1.3c1.2,1.2,1.8,2.5,1.8,3.8c0,1.4-0.5,4.1-1.6,8.2
	c-1.4,6.1-1.8,10.2-1.1,12.1c0.8,2,3.8,2.9,9,2.6c5.3-0.3,12-1.7,20.3-4.2c6.4-2,10.5-3.1,12.3-3.2c1.8-0.1,3.1,0.5,4,1.9
	c1.5,1.8,2.2,3.1,1.9,3.9c-0.2,0.9-1.5,2.5-3.8,4.8c-7,7.5-18.6,11.3-34.8,11.4c-8.1,0-14.1-0.9-18.1-2.6c-4-1.8-6.8-4.8-8.5-9.2
	c-1.4-3.7-1.1-8.2,0.8-13.5c1.9-5.3,4.7-9.7,8.4-13.1C490.4,85.1,492.4,83.6,493.3,83.3z M499.5,246.8c-1.2,0.4-3.1,1.2-5.7,2.4
	c-9.5,4.7-13.6,8.8-12.4,12.3c0.6,1.2,1.2,1.8,1.8,1.9c0.6,0.1,1.8-0.3,3.4-1.2c2.4-1.2,6-3.8,10.6-8c4.7-4.2,7-6.7,7-7.6
	C504.3,245.3,502.7,245.3,499.5,246.8z"/>
<g>
	<path class="st0" d="M679,154.7c3.7,0.7,4.2,8.5,1.6,23.6c-1.5,8.4-2.5,17.1-2.9,26.1c-0.7,11.8-1.7,23.1-3.1,33.6
		c-1.4,10.6-2.6,16.8-3.6,18.7c-1.2,1.9-3,3-5.6,3.3c-2.6,0.3-4.6-0.5-6-2.3c-0.9-1.2-1.4-6.1-1.5-14.9c-0.1-8.8,0.3-14.7,1.1-17.8
		c0.5-1.7,0.2-2.5-0.7-2.5c-1.2,0.1-4.9,2.3-11.3,6.6c-8.2,5.7-19.3,11.9-33.3,18.7c-14,6.8-23.7,10.9-29.3,12.2
		c-3.8,0.8-6.6,0.8-8.5,0c-1.5-0.6-2.6-1.9-3.3-3.8c-0.7-1.9-0.7-3.4,0-4.5c1.7-2.8,18.1-11.1,49.2-24.9c6.2-2.8,13.8-6.7,22.8-11.6
		c8.9-4.9,14-8,15.2-9.3c0.7-0.8,2.6-8,5.7-21.6c1.6-7.1,2.9-12.5,3.9-16.2c1-3.7,1.9-6.6,2.7-8.5c0.8-1.9,1.7-3.3,2.8-4.1
		C675.7,154.8,677.1,154.6,679,154.7z"/>
	<path class="st0" d="M631.8,168.5c-0.2-1.4-1.1-2.6-2.6-3.6c-6.1-4.5-13.4-3.4-22,3.5c-2.4,2.1-4.8,4.6-7.1,7.6
		c-2.3,3-4.3,6.2-6.1,9.5c-1.8,3.4-3,6.6-3.8,9.7c-1.4,5.6,0.1,10.2,4.4,13.9c4.3,3.7,9.2,4.7,14.9,3c3.8-1.2,7-3.1,9.6-5.7
		c2.8-2.8,5.3-7.1,7.7-12.8c2.4-5.8,3.9-11.4,4.5-16.8C631.8,172.7,632,169.9,631.8,168.5z M617,187.5c-2.6,5.3-5,8.8-7.3,10.8
		c-1.1,0.9-1.8,1.3-2.1,1.3c-0.5,0-0.3-1.3,0.5-4c1.5-6.1,4.3-11.4,8.5-15.8c1.5-1.6,2.7-2.5,3.4-2.6
		C621.9,176.7,620.9,180.2,617,187.5z"/>
</g>
<path class="st0" d="M822.9,181.2c3.3-4.5,6.1-10.8,8.6-18.7c1.8-5.7,4.2-9.9,7.1-12.5c1.7-1.8,3.1-2.8,4.1-3.1
	c1.1-0.3,2.3-0.1,3.7,0.7c2.4,1.3,3.7,3.2,3.7,5.7c0,3.4-1,9.5-3.1,18.3c-2.1,8.9-4,16-5.8,21.4c-2.6,6.6-4.2,16.9-4.8,30.9
	c-0.5,8.5-1,14.7-1.6,18.5c-0.6,3.9-1.6,6.7-3,8.3c-1.4,1.7-3.4,2.6-6.2,2.7c-2.1,0.2-3.9-0.1-5.3-0.7c-1.4-0.6-2.8-1.8-4.4-3.5
	c-1.8-2.3-2.9-4.6-3.2-6.9c-0.3-2.3-0.2-7.9,0.5-16.8l1.1-18.9L822.9,181.2z"/>
<path class="st0" d="M879.8,207.2c1.9,2.5,2.7,4.4,2.3,5.7c-0.3,1.3-2,2.8-5.1,4.4c-2.9,1.6-6.8,3.4-11.8,5.4c-5,2-9.6,3.6-13.8,4.8
	c-4.2,1.2-6.6,1.7-7.3,1.4c-2.4-1.2-3.4-3.7-2.8-7.6c0.6-3.9,2.3-7.1,5.1-9.5c2-1.8,5.8-3.5,11.4-5.3
	C869.7,203.2,877,203.4,879.8,207.2z"/>
<path class="st0" d="M927.8,146.8c2.6,3.2,3.6,13.6,2.9,31.1c-0.7,17.5-2.6,28.4-5.6,32.8c-1.2,1.8-2.9,3.5-5.2,5.2
	c-2.2,1.7-4.6,3-7.1,4.1c-2.5,1-4.7,1.5-6.5,1.5c-2.9,0-6.1-2.1-9.6-6.3c-3.5-4.2-6.8-9.7-9.8-16.6c-3.1-7.2-4.6-15.3-4.6-24.4
	c0-6.7,0.2-10.8,0.6-12.2c0.4-1.4,1.9-2.7,4.5-3.8c2.4-1.2,4.1-1.7,4.9-1.5c0.8,0.1,1.9,1.1,3.3,2.9c1.5,1.8,2.8,2.4,3.8,1.9
	c1-0.5,3.6-3.1,7.7-7.8C916.1,143.6,923.1,141.4,927.8,146.8z M916.6,166.3c-0.5-1.3-2.7,0.8-6.6,6.4l-6,8.3l2.1,12.1
	c1.2,7.6,2.2,11.8,3,12.7c2.4,2.3,4.5-3.6,6.2-17.8l0.2-2.4C916.7,174.1,917,167.6,916.6,166.3z M1021.7,232.4
	c1.8,0.4,2.6,2.3,2.2,5.6c-0.4,3.3-1.6,6.2-3.8,8.7c-3.1,3.4-8.7,7.1-16.9,11.3c-8.2,4.2-16.7,7.4-25.4,9.8
	c-16.2,4.7-33.6,4.2-52.2-1.5c-6.7-2-11.1-4.2-13.2-6.5c-2.1-2.3-2-5,0.1-8.2c1.5-2.2,3.5-3.5,6.1-3.8c2.5-0.4,5.1,0.3,7.7,1.9
	c3.1,1.8,8.5,3.2,16.5,4.4c16.6,2.8,36.4-1.5,59.3-12.9C1014.1,235.1,1020.6,232.2,1021.7,232.4z M1023,139.3c1.3-1.2,3-1.8,5.2-1.8
	c2.1,0,3.5,0.2,4.2,0.7c0.7,0.4,1,1.5,1,3.1c0,3.1-1.1,7.6-3.3,13.6c-2.2,6-4.7,11.4-7.4,16.2c-5.5,9.2-10.4,20.9-14.7,34.9
	c-1.5,4.4-3.6,9.1-6.2,14c-1.8,3.5-3.3,5.8-4.5,6.8c-1.1,1-2.9,1.5-5.1,1.5c-2.4,0-4-0.3-4.6-1c-0.6-0.7-0.9-2.4-0.9-5.4
	c0-3.8,0.7-8.3,2.1-13.6c1.4-5.1,1.8-7.9,1.4-8.3c-0.8-0.6-5.5,0.9-14.3,4.4c-8.8,3.5-14.1,6-15.9,7.5c-2.1,2.1-5.1,2.9-8.8,2.6
	c-3.7-0.3-6.2-1.5-7.4-3.5c-1.4-2.6-0.7-5,2.1-7c2.7-2,11.4-6.7,25.9-13.8c11.6-5.9,19-9.9,22.3-12.2c3.3-2.3,6.7-5.8,10.2-10.6
	c5-6.6,9.5-13.3,13.3-20.2C1019.8,143.1,1021.7,140.5,1023,139.3z M982.3,153c2.9-0.1,5.2,1.1,6.9,3.6c2.6,3.4,3.4,5.9,2.5,7.6
	c-0.9,1.7-3.9,3.3-8.9,4.7c-6.9,2-12.6,4.7-17.2,7.9c-4.3,3.1-7.3,4.7-9,4.9c-1.8,0.2-3.7-0.7-5.8-2.7c-3.7-3.1-4-6.4-1-9.9
	c3-3.5,9.4-7.5,19.1-11.8C974.9,154.5,979.4,153.1,982.3,153z"/>
<path class="st0" d="M765.5,156c4.2-0.3,7.1,0.1,8.7,1.3c1.5,0.8,2.8,2.6,4,5.2c1.2,2.6,1.8,5,1.8,7.3c0,2.1-1.5,8.6-4.5,19.6
	c-3,10.9-5.4,18.4-7.1,22.5c-2.5,6-9.3,11.7-20.4,17c-7.5,3.6-10.8,6-10.1,6.9c0.4,0.6,2.3,0.6,5.5,0c6.7-1.3,17.1-5.9,31.2-13.9
	c3.2-1.8,7.2-3.7,12-5.8c4.8-2,9.4-3.9,14.1-5.5c4.6-1.6,9.1-3,13.4-4.3c4.3-1.3,7.7-2,10.1-2.3c2.4-0.3,3.8-0.1,4.1,0.6
	c0,1.3-1,2.9-2.9,4.9c-1.9,2-4.5,4.2-7.9,6.4c-3.4,2.2-7.1,4.3-11.2,6.3c-9.8,4.8-19.8,10.2-30.1,16.4c-9.5,5.8-17.4,9.6-23.6,11.7
	c-6.2,2-12.1,2.6-17.7,1.8c-3.4-0.4-5.8-1.1-7.2-1.9c-1.5-0.8-2.9-2.3-4.2-4.4c-3.2-5-3.8-9.2-1.6-12.4c2.1-3.2,8.5-7.9,19-14.1
	l14.5-8.4l1.1-9c1-6.7,2.3-12.9,3.7-18.5c0.4-1.7,0.8-3.2,1.1-4.6c0.3-1.4,0.5-2.6,0.7-3.5c0.2-0.9,0.2-1.4,0-1.4
	c-0.3,0-3.6,1.9-9.9,5.8c-6.3,3.9-10,5.8-11.1,5.8c-1.1,0-2.3-1.1-3.5-3.3c-1.2-2.2-1.9-4.2-1.9-6.2c0-1.7,2.3-4.5,6.8-8.4
	c4.5-3.9,9-7,13.4-9.3C758,157.1,761.3,156.3,765.5,156z"/>
<g>
	<path class="st0" d="M977.4,88.1c-0.1,0.2-0.3,0.4-0.4,0.6c-1.7,3.2-6.5,11.1-14.6,23.8c-8,12.7-12.7,19.9-14.1,21.5
		c-1.6,1.8-2.7,2.9-3.3,3.3c-0.6,0.3-1.3,0.3-2.2-0.2c-1.1-0.7-1.3-2.2-0.4-4.4c0.9-2.2,3.5-7.2,8-14.9c4.5-8,8.4-15.3,11.5-22.1
		c6.9-14.9,13.2-26.1,18.9-33.4c3.2-4.2,6.3-9.2,9.2-14.8c1.8-3.3,3.1-5.6,4-6.9c0.9-1.3,1.7-2.2,2.5-2.6c1.4-0.8,2.4-0.6,2.9,0.5
		c0.5,1.1,0.6,3.3,0.2,6.6c-0.3,3.3-1.2,6.3-2.5,9.1c-1.3,2.8-4,7.1-7.9,13L985,74L977.4,88.1z"/>
</g>
<g>
	<path class="st0" d="M1004.1,75.4l4.9-6.2c4.2-5.6,7.4-9.4,9.5-11.4c2.2-2,4.7-3.6,7.5-4.7c2.8-1.1,4.8-1.5,5.9-1.2
		c1.1,0.3,1.5,1.3,1.1,3c-0.2,1-0.7,2.1-1.7,3.3c-0.9,1.2-2.7,3.2-5.1,5.8c-4.3,4.4-7.9,8.8-10.9,13.2c-5.1,7.7-13.5,17-25,27.7
		c-5.2,4.9-10.8,10.7-16.7,17.3c-5.7,6.5-9.4,10.5-11.2,11.9c-1.8,1.4-3.1,1.6-4,0.6c-0.6-0.8-0.8-1.6-0.7-2.3
		c0.2-0.7,0.8-2.1,2.1-4.2c1.1-1.8,6.4-8.5,15.6-19.9c9.3-11.4,15.1-18.4,17.5-20.9c0.2-0.2,0.3-0.3,0.5-0.5L1004.1,75.4z"/>
</g>
<path class="st0" d="M1006,109.3c-0.1-0.5-0.4-0.9-0.8-1.1c-0.4-0.2-1-0.3-1.7-0.2c-1-0.1-4.6,0.8-10.9,2.7
	c-9.9,3.2-20.4,5.6-31.6,7.2c-3.8,0.6-7.1,1-10,1.2c-2.9,0.2-5.4,0.3-7.5,0.2c-2.1-0.1-3.8-0.3-5-0.8c-1.5-0.4-2.4-0.8-2.6-1.2
	c-0.2-0.3-0.2-1,0-2c0.4-1.1,2.1-3.3,4.9-6.6c0.6-0.7,1.3-1.5,1.9-2.2c0.7-0.8,1.2-1.6,1.8-2.4c0.5-0.8,1.1-1.6,1.7-2.3
	c0.6-0.7,1.1-1.5,1.6-2.3c3.3-5.2,3.5-9.2,0.8-12c-1.5-1.6-3.9-2.7-7.4-3.3c-3.6-0.6-7.9-0.7-13.1-0.3c-2.6,0.2-5.3,0.5-8,1
	c-1.4,0.2-2.9,0.5-4.3,0.8c-5.5,1.5-11,3.1-16.6,4.7c-7.2,2.1-13.4,4.4-19.9,8c-3.6,2-7.2,4.8-11,6.6c-0.4,0.3-0.9,0.7-1.3,1
	c-0.9,0.6-1.7,1.1-2.5,1.6c-0.8,0.5-1.5,0.9-2.1,1.2c-0.6,0.3-1.1,0.6-1.6,0.8l-2.5,0.6l-0.3,0.2l0-0.3l-0.4-8.2
	c-0.3-3-0.6-5.6-1-7.6c-0.4-2-0.9-3.6-1.5-4.6c-1.2-2.1-3.4-3.3-6.8-3.6c-4.4-0.3-11.1,4.2-20.2,13.5c-3,3.2-5.1,5.4-6.2,6.5
	c-1.2,1.1-1.9,1.6-2.1,1.2c-0.1-0.2,0.4-3.4,1.5-9.6c0.7-3,1.2-5.6,1.4-7.7c0.2-2.1,0.2-3.8,0.1-4.9c-0.2-1.6-0.5-2.7-0.8-3.2
	c-0.2-0.3-0.5-0.6-0.9-0.9c-0.4-0.3-0.9-0.6-1.6-1c-0.8-0.4-1.6-0.8-2.3-1c-0.7-0.2-1.3-0.3-1.8-0.2c-1.1,0-3,0.6-5.5,1.7
	c-5.9,2.3-15.5,9.5-28.7,21.6c-9.8,9-15.2,13.6-16,13.7c-0.2,0-0.4,0-0.5-0.2c-0.1-0.2-0.1-0.3-0.2-0.6c-0.1-0.8,0-2.2,0.4-4.3
	c0.1-0.8,0.6-3.9,1.4-9.2c0.2-0.6,0.3-1.4,0.4-2.4c0.1-1,0.3-2.3,0.6-3.9c0.1-0.4,0.1-0.9,0.2-1.4c0-0.5,0.1-0.9,0.2-1.3
	c0.1-0.3,0.1-0.6,0.2-0.8c0-0.2,0.1-0.5,0.2-0.8l0-0.2c1.3-7.1,0.8-11.1-1.5-12.2c-0.3-0.1-0.5-0.2-0.8-0.2
	c-0.3-0.1-0.5-0.2-0.6-0.3c-0.1-0.1-0.3-0.2-0.4-0.2c-0.1,0-0.3-0.1-0.4,0c-0.4,0-1,0.3-1.9,0.9l-0.2,0c-0.7,0.3-1.5,1.5-2.5,3.5
	c-1,2-1.7,4.2-2.1,6.4c-0.2,0.7-1.3,5.2-3.4,13.6c-1.5,6.2-3.1,12.7-4.6,19.5c0,0.2-0.1,0.3-0.1,0.5c0,0.1,0,0.2,0,0.3
	c-0.4,5.7,0,10.6,6.9,12.6c2.5,0.7,4.1,2.1,6.5,1.8c1-0.5,2.2-0.9,3.3-1.2c0.3-0.2,0.7-0.4,1-0.6c2.8-2.7,6.2-5.9,10.2-9.5
	c6.3-5.9,11.1-10.6,14.5-14.1l11-10.9c3.8-3.4,5.8-5,6.1-4.7c0.3,0.3,0,2.1-0.9,5.5c-0.2,1-0.4,2.1-0.7,3.4
	c-0.3,1.1-0.6,2.4-0.8,3.7c-0.2,1.3-0.4,2.7-0.7,4.2c-0.2,2-0.3,3.7-0.2,5.2c0.1,1.5,0.2,2.7,0.5,3.8c0.2,0.6,0.5,1.3,0.8,1.9
	c0.3,0.6,0.7,1.2,1.2,1.7c0.4,0.5,1,1,1.7,1.4c1.2,0.7,2.1,1.1,2.7,1.2c0.6,0.1,1.6-0.1,3-0.5c2-0.5,3.9-1.5,5.6-3
	c0.8-0.6,2-2,3.8-3.9c1.7-1.8,3.9-4,6.3-6.9c8.3-9.3,12.9-13.6,13.7-13c0.4,0.3,0.5,1.7,0.4,4.2c-0.3,5.4,0.3,9.3,1.6,11.7
	c1.2,2.5,3.4,4.2,6.7,5.3c2.1,0.6,4.2,0.7,6.3,0.4c2.1-0.4,4.3-1.2,6.4-2.6c2.1-1.4,4.2-3,6.6-5.1c0.1-0.1,0.3-0.3,0.4-0.4
	c0.1,0,0.1,0,0.2,0c2.6-1.7,5.6-3.2,8.7-4.4c0.2-0.1,0.5-0.3,0.8-0.4c0.3-0.1,0.6-0.2,0.8-0.2c3.1-1.1,6.4-2,9.7-2.7
	c2.7-0.8,5.5-1.5,8.3-2.2c11.9-4.2,20-6.6,24.2-7.2c2-0.3,3.7-0.6,5-0.7c1.3-0.2,2.3-0.2,3.1-0.2c0.4,0,0.6,0.1,0.8,0.3
	c0.1,0.2,0.1,0.3,0,0.5c-0.1,0.2-0.3,0.4-0.5,0.7c-1.9,1.6-4.1,4.2-6.8,8c-1.4,2-2.5,3.6-3.4,5c-0.9,1.3-1.5,2.4-1.7,3.3
	c-1.1,3-0.9,5.8,0.5,8.3c1.5,2.5,4,4.4,7.7,5.7c1.6,0.6,3.4,1,5.4,1.3c2,0.3,4.2,0.4,6.5,0.5c2.3,0,4.8-0.1,7.4-0.4
	c2.6-0.3,5.4-0.7,8.5-1.3c3.1-0.6,6.3-1.3,9.6-2.1c3.3-0.8,6.9-1.8,10.6-3c3.7-1.2,7.6-2.4,11.8-3.7c2.2-0.9,4.1-1.6,5.7-2.2
	c1.7-0.6,3-1.2,4-1.6c0.8-0.2,1.4-0.4,1.9-0.7c0.5-0.3,1-0.5,1.5-0.8c0.5-0.2,0.8-0.4,1.2-0.5c0.9-0.5,1.5-1,1.7-1.5
	C1006.6,111.3,1006.6,110.2,1006,109.3z"/>
<polygon class="st1" points="59.1,184.3 56.6,177.4 60.8,171.4 53.5,171.7 49.1,165.8 47.1,172.8 40.2,175.1 46.2,179.3 46.3,186.6 
	52.1,182.1 "/>
<polygon class="st1" points="50.4,152.8 59.3,162 61.1,149.4 72.5,143.8 61.1,138.1 59.3,125.6 50.5,134.7 37.9,132.5 43.8,143.7 
	37.9,155 "/>
<path class="st1" d="M282.8,152.5C279.5,86.6,228.5,31,158.3,25.2c-5.4,0-10.9,0-16.3,0c-67,3.5-121.5,55.3-127.3,124.6
	c0,5.9,0.1,11.8,0.1,17.7c4.1,65,53.9,119.2,123.2,125.9c5.9,0,11.8,0,17.7,0c66.6-3.4,121.5-55,127.3-124.6
	C282.8,163.4,282.8,157.9,282.8,152.5z M148.4,284.2c-68.6,0.5-124.1-55.3-124.6-125.3C23.2,90.4,79.2,34.7,149.1,34.3
	c68.7-0.4,124,55.3,124.6,125.3C274.3,228.2,218.4,283.7,148.4,284.2z"/>
<path class="st1" d="M213.2,116.2c-6.1-0.2-5.1,7.2-5.2,11.9c-0.1,4.1-0.5,10.1,4.9,10c5.2,0,4-6,4.5-10.3
	C216.4,123.8,218.2,116.3,213.2,116.2z"/>
<path class="st1" d="M193,122.5c1.1,0.7,2.1,0,2.9-0.9c5-5.5,11.3-8.8,18.3-10.8c1.1-0.3,2.2-0.6,2.5-2c-0.1-1.3-1-1.7-2.2-1.8
	c-4.7-0.4-19.4,8.1-21.7,12.6C192.2,120.6,191.7,121.7,193,122.5z"/>
<path class="st1" d="M237.6,127.9c2.8-5.8,4.9-11.7,4.3-18.2c-0.6-6.5-2.8-11-10.6-12.5c-11.5-2.2-22.7-6.1-30.6-15.6
	c-2-2.3-3.5-2-5.6-0.1c-7.1,6.7-11.9,14.7-13.1,24.4c-1.1,8.8-1.8,9.3-10.6,6.4c-2.3-0.8-4.7-1.7-6.8-2.9
	c-13.9-7.8-20.7-25.8-14.6-38c0.8-1.6,3.8-3.3,1.7-5.1c-2.1-1.9-4.1,0.9-5.7,2c-19.3,13.3-28,32.8-31.2,55.2
	c-1.2,8.2-2.1,16.4-4.6,24.4c-5,15.5-4,29.6,6.8,43c3.6,4.5,10.4,10,5.3,17.9c-1.5,2-2.7,5.1-5.2,0.7c-1-1.7-2.4-3.5-4.1-4.4
	c-9.3-4.9-17.3-11-22.1-20.7c-1.6-2.3-0.6-3.9,1.2-5.7c5.4-5.4,4.7-7.6-2.5-9.9c-8.7-2.8-10.6-11.5-3.9-17.7
	c1.3-1.2,2.9-2.1,4.3-3.2c6.1-4.4,6.2-6.4,0.3-10.9c-12.5-9.7-15.6-22-9-36.3c3.5-7.6,8.2-14.4,14.2-20.3
	c7.4-7.2,14.9-14.2,22.3-21.4c1.3-0.9,2.5-1.9,3.9-2.6c1.8-1,3-2.4,2.1-4.3c-1-2.2-3.1-1.5-4.7-0.9c-32.6,12-57,32.8-70.5,65.3
	c-0.6,1.4-2.8,3.2,0.2,4.3c2.1,0.8,3-0.5,3.9-2.4c3.4-6.9,6.6-13.8,10.7-20.2C74.2,81.4,88.9,69,107.7,61.6
	c-0.3,3.9-3.9,5.3-6.2,7.5c-9.8,9.4-19.2,19-24.4,31.8c-6,14.7-3.3,27.8,8.2,36.9c4.5,3.6,5.9,5.8-0.2,9.2
	c-5.5,3.1-7.9,8.5-6.9,14.9c1,6.3,5.3,9.6,11.4,10.8c0.6,0.1,1.1,0.6,1.7,1c-1.2,2.9-4.7,3.8-5.3,6.8c-4.9-1-9.8-3.1-14.7-0.1
	c-7.9,5-9,11.8-2.1,19.4c3.8,4.2,4.9,9,5.3,14c0.4,4.6-0.3,9.3-0.5,14c-2.6-0.4-3.4-2.7-4.6-4.5c-5.2-7.6-10.3-15.3-15.4-22.9
	c-0.7-1.1-1-2.8-2.8-1.9c-1.3,0.6-2,1.9-1.6,3.4c0.3,1.3,0.8,2.6,1.6,3.7c6.8,10.8,14.7,20.7,22.6,30.6c1,1.1,2.1,3.3,3.4,2
	c1.9-2,3.1-4.8,1-7.6c0,0,0,0,0,0c-2.3-11.3,0.9-19.8,12.4-24c7.7-2.2,15-1.9,21.2,4c0.8,0.7,1.9,1.4,1.5,2.7
	c-0.4,1.4-1.8,1-2.8,1.2c-4.5,0.9-9,1.9-13.5,2.7c-1.7,0.3-3.3,0.4-2.8,2.6c0.5,2.4,2.3,1.5,3.8,1.3c4.6-0.9,9.2-1.8,13.8-2.7
	c5.6-1.1,11.6,4.6,11,10.4c-0.2,1.9-1.3,1.9-2.7,2.1c-4.1,0.7-8.2,1.6-12.3,2.5c-1.2,0.3-3,0.1-2.4,2.2c0.4,1.3,1.2,2.1,3,1.5
	c3.3-1.1,7.1-0.4,10.3-2.3c8.1-1.5,4.9,4.8,5.6,8.3c-1.6,5.6-2.6,11.7-9.6,13.2c-1.6,0.4-3.1,0.3-3.1,2.6c0,2.1,1.8,2.6,3.1,2.9
	c5,1.3,10.1,2.2,15.1,3.4c43.4,9.8,77.7-6.3,106.5-37.8c6-6.5,5.6-6.8-1.5-12.4c-1-0.8-1.7-2-2.6-3.1c1-5.6,6.3-7.3,9.8-10.6
	c4.4-4,4.1-7.1-1.1-9.9c-12.9-7-13-8.1-1.5-17.5c0.3-0.3,0.7-0.6,1-0.9c7.6-6.7,7.2-12.1-1.2-17.7c-8.3-5.5-9.3-8.9-5.6-18
	C234.9,134,236.2,130.9,237.6,127.9z M87.6,205.1C87.5,205.1,87.5,205.1,87.6,205.1c-0.1,0-0.1,0.1-0.2,0.1
	c-3.1,0.6-6.2,3.2-9.3,4.3c-0.9-5.5-4.3-9.7-7.6-14.1c-3.1-4-2.6-7.9,1-11.1c0.5-0.4,1.1-0.7,1.2-1c6.5-0.9,11.6,1.5,15.9,6.4
	C94.1,195.9,93.9,199.4,87.6,205.1z M138.9,211.6c-6.7,5.2-7.6,11.8-2.6,17.2c-0.8,0.9-3.4,3.4-4.3,4.3l0,0
	c-3.3,0.2-3.4-2.1-4.3-3.9c-2.6-5.1-5.3-9.1-5.7-15c3.9-1.9,3.9-10,7.6-12C129.2,203.1,137.6,207.1,138.9,211.6z M144.1,222.5
	C144.2,222.6,144.1,222.6,144.1,222.5c-1.7,1.4-3.4,2.7-5.1,4.1c-0.5-0.5-1.4-1.3-1.5-1.3c-1.6-1.5-2.4-2.7-2.3-4
	c-0.3,2.5-0.3,1.9,0.2-0.9c0.4-1.5,4.9-5.9,4.9-6.1c5-6.3,7.6,2.1,13,1.3c-3.8,2.8-6.4,4.8-9,6.8
	C144.2,222.5,144.2,222.5,144.1,222.5z M135.4,220.5c0.2-1.3,0.6-2.6,1-3.9C135.9,217.9,135.6,219.2,135.4,220.5z M178.5,260.4
	c-19.1,5.4-38.2,3.2-57.8-1.8c3.9-4.7,5.9-10,7.5-15.5c0.4-0.4,0.8-0.9,1.2-1.4c0,0,0,0,0-0.1c1.6-1.3,2.9-3.4,5.7-6l0,0
	c4.7-3.2,7.1-8.8,12-11.8c8.6-6.8,21.3-0.1,26.6,8.2c1,4.3,3,6.8,8,7.2c4.9,0.4,9.8,0.5,14.7,0c10.8-1.2,20.4-6.1,30.3-10.1
	C213.9,244.6,197.7,254.9,178.5,260.4z M236.2,157.6c7.7,5.2,7.8,7.6,0.5,13.5c-1.4,1.1-2.9,2.2-4.2,3.4c-7.4,6.1-6.4,13.9,2.2,18.2
	c7.4,3.6,7.3,3.6,1,8.8c-2,1.7-4.5,3.1-5.6,5.6c-1.9,3.4-2.5,7.9-1.5,9.5c1.8,2.7,4.8,2,3.8,4.5c-0.4,0.9,0.1,1.1-2.7,2.2
	c-0.1,0-0.2,0.2-0.2,0.2c0,0,0,0-0.1-0.1c-13,6.6-26.1,13-41.2,12.8c-9.1-0.1-11.1-2-11.4-10.9c0.3-2.1,7.4-4.5,0.5-6.3
	c-16.4-4.2-32.3-9.3-46.1-19.5c-6.1-4.7-11-10.6-15.2-16.9c-4.8-7.2-6.4-15.4-3.9-23.9c4.3-14.2,5.4-29,8.1-43.5
	c2.4-13,8.6-24.6,17.3-34.7c1.5-1.8,3.2-3.7,5.6-2.9c2.6,0.8,1.1,3.5,1.3,5.3c1.1,19.1,16.9,34.4,35.5,34.5c4.3,0,6.5-0.5,5.9-6
	c-1-9.5,3.1-17.5,9.3-24.5c1.6-1.9,2.8-2.8,5.2-0.4c8.1,8,18.6,11.8,29.4,14.2c6.6,1.5,9,5.2,8.8,11.5c-0.1,4.1-1.3,8-2.9,11.7
	c-1.9,4.3-3.9,8.6-5.6,13C225.9,146.4,227.6,151.8,236.2,157.6z"/>
<path class="st1" d="M188.8,151c-5.2,0.9-9.4,4.3-9.1,9.4c0.4,7.6-4,7.1-8.7,6.8c-2-0.1-3.9-0.8-5.9-1.3c-1.3-0.3-2.8-1-3.3,0.9
	c-0.4,1.7,1.1,2.2,2.3,2.8c2.7,1.2,5.6,1.7,7.9,1.5c8.1,0,14.6-2.7,21.1-6.2c4.1-2.3,4.4-5.2,2.9-9
	C194.7,152.5,192.4,150.4,188.8,151z M185,164.3c-2.2,0.4-2.2-1.8-1.9-3.4c0.8-3.4,2.8-5.7,6.3-6.1c2.7-0.3,2.9,2.2,3.7,3.9
	C191.5,162.3,188.3,163.7,185,164.3z"/>
<path class="st1" d="M145,117.5c-2.1,0-3.8,1.6-3.8,3.6v14.8c0,2,1.7,3.6,3.8,3.6c2.1,0,3.8-1.6,3.8-3.6v-14.8
	C148.7,119.1,147,117.5,145,117.5z"/>
</svg>
